<svg xmlns="http://www.w3.org/2000/svg" viewBox="0 0 320 40">
  <g style="white-space:pre" fill="#dbdbdb" aria-label="STEPMANIA" font-family="Segoe UI Black" font-size="32" font-weight="900">
    <path style="text-transform:uppercase;white-space:pre" d="M28.8 26.2q0 2.3-1.2 4-1.2 1.6-3.4 2.4-2.1.8-5.2.8-3.5 0-6.4-1.2v-6.1q1.4 1 3.1 1.6 1.7.7 3.2.7 1 0 1.7-.4.6-.4.6-1.2 0-.6-.3-1t-1-.7q-.5-.4-2.2-1-5.4-2.1-5.4-6.7 0-3.3 2.4-5.2 2.5-2 6.7-2l2.1.1 1.8.2 2.3.6v5.7q-2.9-1.6-5.6-1.6-1.1 0-1.8.5-.7.4-.7 1.1 0 .7.6 1.2.5.4 2.3 1.2 3.5 1.4 5 3 1.4 1.7 1.4 4zM42.8 15.9V33h-6.7V15.9h-6.3v-5.3h19.4v5.3zM51.9 33V10.6h14v5.3h-7.3V19h6.8v5.3h-6.8v3.3h7.8V33zM87.9 18q0 2.3-1.2 4-1.1 1.8-3.3 2.8-2.2 1-5 1h-2V33h-6.8V10.6h9.2q4.7 0 6.9 1.8t2.2 5.6zm-7.2.2q0-1.4-.7-2-.8-.8-2.4-.8h-1.3V21h1.5q3 0 3-2.8zM111 33V20.7l.2-3.8v-1h-.1l-.8 3.6L107 33h-6.3l-3.5-13.3-.7-3.8h-.2l.2 6.5V33h-6V10.6h10.2l3 12.2q.2.3.3 1.5l.3 1.8.6-3.4 2.9-12.1h10V33zM136.2 33l-1-4.1h-6.7l-1 4.1h-7.3l7.7-22.4h8.3l7.3 22.4zm-4.3-17.5h-.1l-.2 1.2-2 7.4h4.4l-1.6-6.1-.5-2.5zM161.8 33l-8-10.8-1.4-2.3h-.1V33h-6.2V10.6h6.4l7.6 10.3.3.5.4.5.4.6.3.5V10.6h6.2V33zM172.1 33V10.6h6.8V33zM197.4 33l-1-4.1h-6.7l-1 4.1h-7.4l7.8-22.4h8.3l7.3 22.4zM193 15.5h-.1l-.3 1.2q-.1.9-1.8 7.4h4.2l-1.5-6.1-.5-2.5z"/>
  </g>
  <g style="white-space:pre" fill="#dbdbdb" aria-label="SERVER" font-family="Segoe UI Light" font-size="31" font-weight="300">
    <path style="text-transform:uppercase;white-space:pre" d="M207.1 32.2v-1.7q2.3 1.5 4.7 1.5 2.6 0 3.9-1 1.3-1.1 1.3-3 0-1.7-.9-2.6-.9-1-3.8-2.8-3.3-1.9-4.2-3.2-.9-1.3-.9-3 0-2.3 1.8-3.9t4.8-1.6q2 0 3.9.7v1.6q-2-1-4.1-1-2.2 0-3.5 1.2-1.3 1.1-1.3 2.9 0 1.6.9 2.6t3.8 2.7q3 1.7 4 3 1 1.4 1 3.1 0 2.5-1.7 4.1-1.7 1.6-4.9 1.6-1.1 0-2.6-.4-1.4-.3-2.2-.8zM223.2 33V11.3h10.2v1.4h-8.7v8.7h8v1.3h-8v9h9.2V33zM249.8 33l-2.9-6.4q-.8-2-1.7-2.6-1-.7-2.3-.7h-2.7V33h-1.5V11.3h6q3 0 4.6 1.6 1.6 1.5 1.6 4 0 2.4-1.3 4-1.4 1.5-3.8 2 1.3.6 2.5 3.2l3.2 6.9zm-9.6-20.3V22h3.8q2.4 0 3.9-1.3t1.5-3.6q0-2-1.4-3.2-1.3-1.2-3.7-1.2zM262.8 33h-1.1l-8-21.7h1.7l6.3 17.5.6 2 .7-2 6.6-17.5h1.6zM274.6 33V11.3h10.2v1.4H276v8.7h8v1.3h-8v9h9.2V33zM301.2 33l-2.9-6.4q-.8-2-1.7-2.6-1-.7-2.3-.7h-2.7V33h-1.5V11.3h6q3 0 4.6 1.6 1.6 1.5 1.6 4 0 2.4-1.3 4-1.4 1.5-3.8 2 1.3.6 2.5 3.2L303 33zm-9.6-20.3V22h3.8q2.4 0 3.9-1.3t1.5-3.6q0-2-1.3-3.2-1.4-1.2-3.8-1.2z"/>
  </g>
</svg>
